# xmcd
#
# Track frame offsets:
#  150
#  12362
#  17060
#
# Disc length: 307 seconds
#
# Revision: 0
# Processed by: cddbd v1.4PL0 Copyright (c) Steve Scherf et al.
# Submitted via: AltoMP3_Maker 3.0
#
DISCID=18013103
DTITLE=Shana Petrone - Heaven Bound
DYEAR=1900
DGENRE=
TTITLE0=Heaven Bound
TTITLE1=Something Real
TTITLE2=What did you think I'd Do
EXTD=
EXTT0=
EXTT1=
EXTT2=
PLAYORDER=
